# This file uses centimeters as units for non-parametric coordinates.

mtllib sm_Camelot_Sword.mtl
g default
v -1.835248 -22.330328 0.936932
v 1.835240 -22.330328 0.936932
v -2.951667 61.290390 1.375379
v 2.951661 61.290390 1.375379
v -2.951667 61.290390 -1.375379
v 2.951661 61.290390 -1.375379
v -1.835248 -22.330328 -0.936932
v 1.835240 -22.330328 -0.936932
v -0.023857 -36.061245 0.396527
v -0.023857 -36.061245 -0.396527
v -0.016436 61.290409 -1.569303
v -0.016436 61.290409 1.569303
v -1.835248 36.227352 0.936932
v -0.015002 36.227310 0.936932
v 1.835240 36.227352 0.936932
v 1.835240 36.227352 -0.936932
v -0.015002 36.227310 -0.936932
v -1.835248 36.227352 -0.936932
v -2.951668 42.449509 -1.375379
v -0.016436 42.449501 -1.569303
v 2.951661 42.449509 -1.375379
v 2.951661 42.449509 1.375379
v -0.016436 42.449501 1.569303
v -2.951668 42.449509 1.375379
v 11.118454 41.829140 2.441671
v 14.653830 39.671135 3.313862
v -0.021709 39.671127 3.313862
v -0.016436 41.829102 2.441671
v -0.023857 36.227310 2.441671
v -0.028015 38.385323 3.313862
v 14.653830 38.385334 3.313862
v 11.118454 36.227352 2.441671
v 11.118454 36.227352 -2.441669
v 14.653830 38.385334 -3.313860
v -0.028015 38.385323 -3.313860
v -0.023857 36.227310 -2.441669
v -0.016436 41.829102 -2.441669
v -0.021709 39.671127 -3.313860
v 14.653830 39.671135 -3.313860
v 11.118454 41.829140 -2.441669
v -11.118449 36.227352 -2.441668
v -14.653830 38.385334 -3.313860
v -14.653830 38.385334 3.313862
v -11.118449 36.227352 2.441669
v -11.118454 41.829140 2.441671
v -14.653830 39.671135 3.313862
v -14.653830 39.671135 -3.313860
v -11.118454 41.829140 -2.441670
v -3.367842 61.290409 -0.018515
v -0.016436 61.290409 -0.018515
v 3.367836 61.290409 -0.018515
v 3.367836 42.449509 -0.018515
v 11.118454 41.829140 -0.028806
v 14.653830 39.671135 -0.039096
v 14.653830 38.385334 -0.039096
v 11.118454 36.227352 -0.028806
v 2.918790 36.227352 -0.018515
v 2.918790 -22.330328 -0.018515
v -0.023857 -37.331196 -0.018515
v -2.918798 -22.330328 -0.018515
v -2.918798 36.227352 -0.018515
v -11.118449 36.227352 -0.028806
v -14.653830 38.385334 -0.039096
v -14.653830 39.671135 -0.039096
v -11.118454 41.829140 -0.028806
v -3.367843 42.449509 -0.018515
v -2.951667 58.481678 -1.375379
v -0.016436 58.481686 -1.569303
v 2.951661 58.481678 -1.375379
v 3.367836 58.481693 -0.018515
v 2.951661 58.481670 1.375379
v -0.016436 58.481693 1.569303
v -2.951667 58.481670 1.375379
v -3.367842 58.481686 -0.018515
v -3.630152 61.290390 -2.232515
v -0.016762 61.290409 -2.471243
v -0.016763 60.262253 -2.471244
v -3.630152 60.262245 -2.232515
v 3.630001 60.262245 -2.232978
v 3.630001 61.290390 -2.232978
v 4.308143 61.290409 -0.022025
v 4.308143 60.262264 -0.022025
v 3.634962 60.262238 2.232654
v 3.634962 61.290390 2.232654
v -0.016761 61.290409 2.471244
v -0.016762 60.262264 2.471243
v -3.635108 60.262238 2.232188
v -3.635108 61.290390 2.232188
v -4.308148 60.262253 -0.022024
v -4.308148 61.290409 -0.022024
v 1.514729 61.215755 -1.514729
v 0.000000 61.215755 -2.142150
v -1.514729 61.215755 -1.514729
v -2.142150 61.215755 0.000000
v -1.514729 61.215755 1.514729
v 0.000000 61.215755 2.142150
v 1.514729 61.215755 1.514729
v 2.142150 61.215755 0.000000
v 2.564175 67.003403 -2.566591
v -0.019710 69.320335 -3.629713
v -2.569010 67.003403 -2.566591
v -3.649422 69.320335 -0.000000
v -2.569010 67.003403 2.566591
v -0.019710 69.320335 3.629713
v 2.564175 67.003403 2.566591
v 3.610003 69.320335 -0.000000
v -0.019710 66.115349 -0.000000
v 2.871088 66.688583 -2.871088
v -0.018947 69.227486 -4.060332
v -2.871088 66.688583 -2.871088
v -4.079279 69.227486 0.000000
v -2.871088 66.688583 2.871088
v -0.018947 69.227486 4.060332
v 2.871088 66.688583 2.871088
v 4.041385 69.227486 0.000000
vt 0.038218 0.207977
vt 0.082456 0.008354
vt 0.082465 0.025254
vt 0.057221 0.207977
vt 0.107663 0.207977
vt 0.126667 0.207977
vt 0.040335 0.987230
vt 0.059238 0.987230
vt 0.083861 0.987230
vt 0.108087 0.987230
vt 0.126990 0.987230
vt 0.057321 0.208089
vt 0.081992 0.025436
vt 0.083382 0.987040
vt 0.059167 0.987041
vt 0.107997 0.987041
vt 0.107766 0.208089
vt 0.127095 0.208089
vt 0.127215 0.987041
vt 0.081952 0.008543
vt 0.037992 0.208089
vt 0.039950 0.987041
vt 0.412375 0.896584
vt 0.368216 0.896584
vt 0.371829 0.389503
vt 0.411724 0.393598
vt 0.184453 0.391158
vt 0.224472 0.387163
vt 0.222880 0.893856
vt 0.178764 0.893855
vt 0.372926 0.217398
vt 0.373381 0.143734
vt 0.439499 0.143734
vt 0.421855 0.217399
vt 0.373416 0.104004
vt 0.373164 0.037325
vt 0.414737 0.037325
vt 0.437973 0.104004
vt 0.159716 0.097564
vt 0.183038 0.030884
vt 0.224840 0.030884
vt 0.224663 0.097564
vt 0.224680 0.137295
vt 0.224833 0.213210
vt 0.175257 0.213034
vt 0.157841 0.137295
vt 0.330895 0.393598
vt 0.322958 0.896584
vt 0.322928 0.217399
vt 0.305813 0.143734
vt 0.307415 0.104004
vt 0.330565 0.037325
vt 0.267690 0.030884
vt 0.291167 0.097564
vt 0.293117 0.137295
vt 0.275711 0.213393
vt 0.265484 0.391360
vt 0.268081 0.893855
vt 0.368005 0.983370
vt 0.368048 0.951602
vt 0.433610 0.951601
vt 0.434544 0.983370
vt 0.301209 0.951601
vt 0.300188 0.983370
vt 0.222764 0.980643
vt 0.222774 0.948874
vt 0.289481 0.948874
vt 0.290415 0.980643
vt 0.157210 0.948874
vt 0.156220 0.980643
vt 0.957656 0.882297
vt 0.925082 0.882295
vt 0.925082 0.811212
vt 0.953583 0.819957
vt 0.925082 0.952696
vt 0.953583 0.943957
vt 0.910205 0.523321
vt 0.910205 0.562186
vt 0.878598 0.757181
vt 0.878598 0.523134
vt 0.949566 0.562186
vt 0.949566 0.523321
vt 0.981173 0.523134
vt 0.981173 0.757181
vt 0.930490 0.757181
vt 0.930274 0.584948
vt 0.949566 0.485086
vt 0.930274 0.462328
vt 0.930490 0.290090
vt 0.981173 0.290091
vt 0.910205 0.485087
vt 0.878598 0.290091
vt 0.895803 0.943958
vt 0.891729 0.882297
vt 0.895803 0.819957
vt 0.976602 0.882300
vt 0.971587 0.958213
vt 0.971597 0.805713
vt 0.925155 0.791458
vt 0.877796 0.805607
vt 0.872784 0.882300
vt 0.877805 0.958318
vt 0.925155 0.972445
vt 0.691098 0.884437
vt 0.643918 0.884437
vt 0.643852 0.623129
vt 0.688825 0.623129
vt 0.598374 0.623129
vt 0.596219 0.884437
vt 0.691256 0.884437
vt 0.643557 0.884437
vt 0.643551 0.623129
vt 0.689027 0.623129
vt 0.598575 0.623129
vt 0.596377 0.884437
vt 0.863734 0.577844
vt 0.809858 0.613017
vt 0.643550 0.613017
vt 0.643472 0.577844
vt 0.477767 0.613017
vt 0.423889 0.577844
vt 0.643440 0.521713
vt 0.643374 0.556887
vt 0.423712 0.556887
vt 0.476775 0.521714
vt 0.810839 0.521714
vt 0.863910 0.556887
vt 0.423454 0.556887
vt 0.476525 0.521714
vt 0.643935 0.521713
vt 0.644008 0.556887
vt 0.810588 0.521714
vt 0.863653 0.556887
vt 0.643850 0.613017
vt 0.643919 0.577844
vt 0.863479 0.577844
vt 0.809614 0.613017
vt 0.477524 0.613017
vt 0.423633 0.577844
vt 0.700546 0.930216
vt 0.643870 0.930216
vt 0.643895 0.913458
vt 0.700355 0.913458
vt 0.586985 0.913458
vt 0.586790 0.930216
vt 0.643547 0.930216
vt 0.643550 0.913458
vt 0.700553 0.913458
vt 0.700742 0.930216
vt 0.587027 0.913458
vt 0.586831 0.930216
vt 0.772531 0.439723
vt 0.714090 0.467139
vt 0.714082 0.457212
vt 0.766613 0.432703
vt 0.656241 0.439723
vt 0.662078 0.432703
vt 0.612794 0.373534
vt 0.620115 0.373534
vt 0.656241 0.307345
vt 0.662078 0.314365
vt 0.714090 0.279928
vt 0.714082 0.289856
vt 0.772531 0.307345
vt 0.766613 0.314365
vt 0.815176 0.373534
vt 0.807862 0.373534
vt 0.714096 0.373534
vt 0.820584 0.035863
vt 0.871685 0.035863
vt 0.901385 0.247200
vt 0.830011 0.180227
vt 0.916072 0.035863
vt 0.963470 0.180227
vt 0.510060 0.035863
vt 0.554446 0.035863
vt 0.525174 0.247200
vt 0.462644 0.180227
vt 0.605551 0.035863
vt 0.596165 0.180227
vt 0.658765 0.035863
vt 0.653561 0.247200
vt 0.713077 0.035863
vt 0.713087 0.180227
vt 0.767390 0.035863
vt 0.772249 0.247200
vn 0.000000 1.000000 -0.000003
vn -0.000000 1.000000 0.000000
vn 0.000000 1.000000 0.000000
vn 0.000002 1.000000 -0.000001
vn 0.694786 -0.129421 -0.707476
vn 0.694786 -0.129421 -0.707476
vn 0.694786 -0.129421 -0.707476
vn 0.694786 -0.129421 -0.707476
vn -0.696129 -0.127316 -0.706537
vn -0.696129 -0.127316 -0.706537
vn -0.696129 -0.127316 -0.706537
vn -0.696129 -0.127316 -0.706537
vn -0.000000 1.000000 0.000000
vn -0.000003 1.000000 -0.000006
vn 0.131989 -0.004103 0.991243
vn 0.131989 -0.004103 0.991243
vn 0.131989 -0.004103 0.991243
vn 0.131989 -0.004103 0.991243
vn -0.129335 -0.004087 0.991593
vn -0.129335 -0.004087 0.991593
vn -0.129335 -0.004087 0.991593
vn -0.129335 -0.004087 0.991593
vn 0.646585 0.000000 -0.762842
vn 0.646585 0.000000 -0.762842
vn 0.646585 0.000000 -0.762842
vn 0.646585 0.000000 -0.762842
vn -0.129335 -0.004087 -0.991593
vn -0.129335 -0.004087 -0.991593
vn -0.129335 -0.004087 -0.991593
vn -0.129335 -0.004087 -0.991593
vn 0.131989 -0.004103 -0.991243
vn 0.131989 -0.004103 -0.991243
vn 0.131989 -0.004103 -0.991243
vn 0.131989 -0.004103 -0.991243
vn -0.646585 0.000000 -0.762842
vn -0.646585 0.000000 -0.762842
vn -0.646585 0.000000 -0.762842
vn -0.646585 0.000000 -0.762842
vn -0.065924 0.000000 -0.997825
vn 0.000000 0.000000 -1.000000
vn 0.000000 0.000000 -1.000000
vn -0.065924 0.000000 -0.997825
vn 0.065197 0.000000 -0.997872
vn 0.065197 0.000000 -0.997872
vn 0.956040 0.000000 -0.293235
vn 1.000000 0.000000 -0.000001
vn 1.000000 0.000000 -0.000000
vn 0.956040 0.000000 -0.293235
vn 0.065197 0.000000 0.997872
vn 0.000000 0.000000 1.000000
vn 0.000000 0.000000 1.000000
vn 0.065197 0.000000 0.997872
vn -0.065924 0.000000 0.997825
vn -0.065924 0.000000 0.997825
vn -0.956040 0.000000 -0.293235
vn -1.000000 0.000000 -0.000000
vn -1.000000 0.000000 -0.000001
vn -0.956040 0.000000 -0.293235
vn 0.521010 0.853551 0.000000
vn 0.521010 0.853551 0.000000
vn 0.521010 0.853551 0.000000
vn 0.521010 0.853551 0.000000
vn -0.000001 0.374718 0.927139
vn -0.000001 0.374718 0.927139
vn 0.000000 0.374719 0.927139
vn 0.000000 0.374719 0.927139
vn 0.000001 0.374719 0.927139
vn 0.000001 0.374719 0.927139
vn -0.000000 -0.374719 0.927138
vn -0.000000 -0.374719 0.927138
vn -0.000001 -0.374720 0.927138
vn -0.000001 -0.374720 0.927138
vn 0.000001 -0.374719 0.927139
vn 0.000001 -0.374719 0.927138
vn 0.521006 -0.853553 0.000000
vn 0.521006 -0.853553 0.000000
vn 0.521006 -0.853553 0.000000
vn 0.521006 -0.853553 0.000000
vn 0.000001 -0.374720 -0.927138
vn 0.000001 -0.374720 -0.927138
vn -0.000000 -0.374720 -0.927138
vn -0.000000 -0.374720 -0.927138
vn -0.000001 -0.374720 -0.927138
vn -0.000001 -0.374720 -0.927138
vn 0.000000 0.374719 -0.927138
vn 0.000000 0.374719 -0.927138
vn 0.000001 0.374719 -0.927138
vn 0.000001 0.374719 -0.927138
vn -0.000001 0.374719 -0.927138
vn -0.000001 0.374719 -0.927138
vn -0.521005 -0.853553 0.000000
vn -0.521005 -0.853553 0.000000
vn -0.521005 -0.853553 0.000000
vn -0.521005 -0.853553 0.000000
vn -0.521010 0.853551 0.000000
vn -0.521010 0.853551 0.000000
vn -0.521010 0.853551 0.000000
vn -0.521010 0.853551 0.000000
vn 0.000000 0.000000 1.000000
vn -0.000000 0.000000 1.000000
vn -0.000000 0.000000 1.000000
vn 0.000000 0.000000 1.000000
vn 0.000000 0.000000 -1.000000
vn 0.000000 0.000000 -1.000000
vn 0.000000 0.000000 -1.000000
vn 0.000000 0.000000 -1.000000
vn 1.000000 0.000000 0.000000
vn 1.000000 0.000000 0.000000
vn 1.000000 0.000000 0.000000
vn 1.000000 0.000000 0.000000
vn -1.000000 0.000000 0.000000
vn -1.000000 0.000000 0.000000
vn -1.000000 0.000000 0.000000
vn -1.000000 0.000000 0.000000
vn 0.000000 0.000000 -1.000000
vn 0.000000 0.000000 -1.000000
vn -0.000000 0.000000 1.000000
vn -0.000000 0.000000 1.000000
vn 0.041483 0.956423 0.289022
vn -0.000001 0.855635 0.517579
vn 0.000000 0.855635 0.517579
vn 0.073945 0.996618 0.035849
vn 0.000000 -1.000000 -0.000017
vn 0.000004 -1.000000 -0.000010
vn 0.000000 -1.000000 -0.000001
vn -0.000000 -1.000000 -0.000017
vn 0.000004 -1.000000 0.000011
vn 0.000000 -1.000000 0.000016
vn -0.000000 -1.000000 0.000016
vn 0.000000 -1.000000 0.000001
vn -0.000001 0.855635 -0.517579
vn 0.040929 0.955235 -0.293002
vn 0.073845 0.996594 -0.036695
vn 0.000000 0.855635 -0.517580
vn 0.000000 -1.000000 0.000000
vn 0.000000 -1.000000 0.000000
vn 0.077153 0.997019 -0.000011
vn 0.077153 0.997019 -0.000007
vn -0.000004 -1.000000 0.000012
vn 0.000000 -1.000000 0.000000
vn 0.000000 -1.000000 0.000000
vn -0.000000 -1.000000 0.000003
vn -0.077153 0.997019 -0.000007
vn -0.077153 0.997019 -0.000011
vn -0.041032 0.955438 -0.292328
vn -0.073860 0.996598 -0.036568
vn -0.000004 -1.000000 -0.000013
vn -0.000000 -1.000000 -0.000003
vn -0.041586 0.956623 0.288346
vn -0.073960 0.996621 0.035725
vn -0.000003 1.000000 0.000003
vn 0.000000 1.000000 0.000002
vn 0.000002 1.000000 0.000003
vn 0.958203 0.000000 0.286091
vn 0.958203 0.000000 0.286091
vn 0.521010 0.853551 0.000000
vn 0.521010 0.853551 0.000000
vn 1.000000 0.000000 0.000000
vn 1.000000 0.000000 0.000000
vn 0.521006 -0.853553 0.000000
vn 0.521006 -0.853553 0.000000
vn 0.661378 0.000000 0.750053
vn 0.661378 0.000000 0.750053
vn 0.661378 0.000000 0.750053
vn 0.661378 0.000000 0.750053
vn 0.714238 -0.132293 0.687286
vn 0.714238 -0.132293 0.687286
vn 0.714238 -0.132293 0.687286
vn 0.714238 -0.132293 0.687286
vn -0.715564 -0.130120 0.686321
vn -0.715564 -0.130120 0.686321
vn -0.715564 -0.130120 0.686321
vn -0.715564 -0.130120 0.686321
vn -0.661378 0.000000 0.750053
vn -0.661378 0.000000 0.750053
vn -0.661378 0.000000 0.750053
vn -0.661378 0.000000 0.750053
vn -0.521006 -0.853553 0.000000
vn -0.521006 -0.853553 0.000000
vn -1.000000 0.000000 0.000000
vn -1.000000 0.000000 0.000000
vn -0.521010 0.853551 0.000000
vn -0.521010 0.853551 0.000000
vn -0.958203 0.000000 0.286091
vn -0.958203 0.000000 0.286091
vn -0.065924 0.000000 -0.997825
vn -0.000064 -0.000000 -1.000000
vn -0.000064 -0.000000 -1.000000
vn -0.065924 0.000000 -0.997825
vn 0.065197 -0.000000 -0.997872
vn 0.065197 -0.000000 -0.997872
vn 0.999999 -0.000000 -0.001111
vn 0.999999 -0.000000 -0.001111
vn 0.956040 0.000000 -0.293236
vn 0.956040 0.000000 -0.293236
vn 0.958203 -0.000000 0.286090
vn 0.958203 -0.000000 0.286090
vn -0.000064 -0.000000 1.000000
vn -0.000064 -0.000000 1.000000
vn 0.065198 -0.000000 0.997872
vn 0.065198 -0.000000 0.997872
vn -0.065924 -0.000000 0.997825
vn -0.065924 -0.000000 0.997825
vn -0.999999 -0.000000 -0.001109
vn -0.999999 -0.000000 -0.001108
vn -0.958203 0.000000 0.286091
vn -0.958203 0.000000 0.286091
vn -0.956041 -0.000000 -0.293233
vn -0.956041 -0.000000 -0.293233
vn 0.000000 1.000000 0.000003
vn -0.000002 1.000000 -0.000006
vn -0.000031 -0.451879 -0.892079
vn -0.397060 -0.516507 -0.758659
vn -0.397060 -0.516507 -0.758659
vn -0.000031 -0.451879 -0.892079
vn 0.394405 -0.516370 -0.760136
vn 0.394407 -0.516370 -0.760135
vn 0.000002 1.000000 0.000003
vn 0.884269 -0.466977 -0.000609
vn 0.884269 -0.466977 -0.000609
vn -0.000005 1.000000 -0.000000
vn 0.400293 -0.517675 0.756160
vn 0.400294 -0.517675 0.756159
vn 0.000002 1.000000 0.000001
vn -0.000032 -0.451878 0.892080
vn -0.000031 -0.451878 0.892080
vn 0.000000 1.000000 -0.000004
vn -0.402964 -0.517809 0.754648
vn -0.402964 -0.517809 0.754648
vn -0.000002 1.000000 -0.000001
vn -0.884269 -0.466977 -0.000608
vn -0.884269 -0.466977 -0.000608
vn 0.000005 1.000000 0.000000
vn 0.684911 0.719881 -0.112551
vn 0.684911 0.719882 -0.112551
vn 0.684911 0.719882 -0.112551
vn 0.684911 0.719882 -0.112551
vn -0.690003 0.714839 -0.113587
vn -0.690003 0.714839 -0.113587
vn -0.690003 0.714839 -0.113587
vn -0.690003 0.714839 -0.113587
vn -0.113163 0.716960 -0.687868
vn -0.113163 0.716960 -0.687868
vn -0.113163 0.716960 -0.687868
vn -0.113163 0.716960 -0.687868
vn -0.113163 0.716961 0.687867
vn -0.113163 0.716961 0.687867
vn -0.113163 0.716961 0.687867
vn -0.113163 0.716961 0.687867
vn -0.690003 0.714839 0.113586
vn -0.690003 0.714839 0.113586
vn -0.690003 0.714839 0.113586
vn -0.690003 0.714839 0.113586
vn 0.684911 0.719882 0.112551
vn 0.684911 0.719882 0.112551
vn 0.684911 0.719882 0.112551
vn 0.684911 0.719882 0.112551
vn 0.112991 0.717791 0.687029
vn 0.112991 0.717791 0.687029
vn 0.112991 0.717791 0.687029
vn 0.112991 0.717791 0.687029
vn 0.112991 0.717790 -0.687030
vn 0.112991 0.717790 -0.687030
vn 0.112991 0.717790 -0.687030
vn 0.112991 0.717790 -0.687030
vn 0.371253 0.696030 0.614584
vn 0.371253 0.696030 0.614584
vn 0.371253 0.696030 0.614584
vn -0.375584 0.694723 0.613430
vn -0.375584 0.694723 0.613430
vn -0.375584 0.694723 0.613430
vn 0.614957 0.696451 -0.369842
vn 0.614957 0.696451 -0.369842
vn 0.614957 0.696451 -0.369842
vn 0.614958 0.696452 0.369840
vn 0.614958 0.696452 0.369840
vn 0.614958 0.696452 0.369840
vn -0.375583 0.694723 -0.613431
vn -0.375583 0.694723 -0.613431
vn -0.375583 0.694723 -0.613431
vn 0.371253 0.696030 -0.614584
vn 0.371253 0.696029 -0.614584
vn 0.371253 0.696030 -0.614584
vn -0.613061 0.694304 0.376960
vn -0.613061 0.694304 0.376960
vn -0.613061 0.694304 0.376960
vn -0.613061 0.694304 -0.376960
vn -0.613061 0.694304 -0.376960
vn -0.613061 0.694304 -0.376960
vn 0.241547 -0.251548 -0.937219
vn 0.241547 -0.251548 -0.937219
vn 0.241547 -0.251548 -0.937219
vn 0.241547 -0.251548 -0.937219
vn -0.243007 -0.252238 -0.936656
vn -0.243007 -0.252238 -0.936656
vn -0.243007 -0.252238 -0.936655
vn -0.243007 -0.252238 -0.936655
vn -0.935845 -0.253225 -0.245094
vn -0.935845 -0.253225 -0.245094
vn -0.935845 -0.253225 -0.245094
vn -0.935845 -0.253225 -0.245094
vn -0.935845 -0.253225 0.245094
vn -0.935845 -0.253225 0.245094
vn -0.935845 -0.253225 0.245094
vn -0.935845 -0.253225 0.245094
vn -0.243007 -0.252238 0.936656
vn -0.243007 -0.252238 0.936656
vn -0.243007 -0.252238 0.936656
vn -0.243007 -0.252238 0.936656
vn 0.241547 -0.251548 0.937219
vn 0.241547 -0.251548 0.937219
vn 0.241547 -0.251548 0.937219
vn 0.241547 -0.251548 0.937219
vn 0.938023 -0.250553 0.239448
vn 0.938023 -0.250553 0.239448
vn 0.938023 -0.250553 0.239448
vn 0.938023 -0.250553 0.239448
vn 0.938023 -0.250553 -0.239448
vn 0.938023 -0.250553 -0.239448
vn 0.938023 -0.250553 -0.239448
vn 0.938023 -0.250553 -0.239448
s 1
g Camelot_Sword_Combined
usemtl initialShadingGroup
f 11/71/1 50/72/2 51/73/3 6/74/4
s off
f 58/1/5 59/2/6 10/3/7 8/4/8
f 7/5/9 10/3/10 59/2/11 60/6/12
s 1
f 49/75/13 50/72/2 11/71/1 5/76/14
s off
f 1/12/15 9/13/16 14/14/17 13/15/18
f 15/16/19 14/14/20 9/13/21 2/17/22
f 57/7/23 58/1/24 8/4/25 16/8/26
f 10/3/27 17/9/28 16/8/29 8/4/30
f 18/10/31 17/9/32 10/3/33 7/5/34
f 7/5/35 60/6/36 61/11/37 18/10/38
s 2
f 67/104/39 68/105/40 20/106/41 19/107/42
f 21/108/43 20/106/41 68/105/40 69/109/44
s 3
f 69/23/45 70/24/46 52/25/47 21/26/48
s 4
f 71/110/49 72/111/50 23/112/51 22/113/52
f 24/114/53 23/112/51 72/111/50 73/115/54
s 5
f 19/27/55 66/28/56 74/29/57 67/30/58
s 6
f 53/31/59 54/32/60 39/33/61 40/34/62
s 7
f 26/116/63 25/117/64 28/118/65 27/119/66
f 27/119/66 28/118/65 45/120/67 46/121/68
s 8
f 29/122/69 30/123/70 43/124/71 44/125/72
f 30/123/70 29/122/69 32/126/73 31/127/74
s 9
f 55/35/75 56/36/76 33/37/77 34/38/78
s 10
f 34/128/79 33/129/80 36/130/81 35/131/82
f 35/131/82 36/130/81 41/132/83 42/133/84
s 11
f 37/134/85 38/135/86 47/136/87 48/137/88
f 38/135/86 37/134/85 40/138/89 39/139/90
s 12
f 42/39/91 41/40/92 62/41/93 63/42/94
s 13
f 64/43/95 65/44/96 48/45/97 47/46/98
s 14
f 26/116/99 27/119/100 30/123/101 31/127/102
s 15
f 38/135/103 39/139/104 34/128/105 35/131/106
s 16
f 39/33/107 54/32/108 55/35/109 34/38/110
s 17
f 64/43/111 47/46/112 42/39/113 63/42/114
s 15
f 47/136/115 38/135/103 35/131/106 42/133/116
s 14
f 30/123/101 27/119/100 46/121/117 43/124/118
s 18
f 22/113/119 23/112/120 28/118/121 25/117/122
s 19
f 14/77/123 15/78/124 32/79/125 29/80/126
f 16/81/127 17/82/128 36/83/129 33/84/130
s 18
f 20/106/131 21/108/132 40/138/133 37/134/134
s 19
f 56/85/135 57/86/136 16/81/127 33/84/130
s 18
f 21/26/132 52/25/137 53/31/138 40/34/133
s 19
f 18/87/139 61/88/140 62/89/141 41/90/142
s 18
f 65/44/143 66/28/144 19/27/145 48/45/146
f 19/107/145 20/106/131 37/134/134 48/137/146
s 19
f 17/82/128 18/87/139 41/90/142 36/83/129
f 13/91/147 14/77/123 29/80/126 44/92/148
s 18
f 23/112/120 24/114/149 45/120/150 28/118/121
s 1
f 3/93/151 12/94/152 50/72/2 49/75/13
f 51/73/3 50/72/2 12/94/152 4/95/153
s 3
f 22/47/154 52/25/47 70/24/46 71/48/155
s 18
f 53/31/138 52/25/137 22/47/119 25/49/122
s 6
f 25/49/156 26/50/157 54/32/60 53/31/59
s 16
f 54/32/108 26/50/158 31/51/159 55/35/109
s 9
f 31/51/160 32/52/161 56/36/76 55/35/75
s 19
f 15/78/124 57/86/136 56/85/135 32/79/125
s off
f 2/17/162 58/18/163 57/19/164 15/16/165
f 9/13/166 59/20/167 58/18/168 2/17/169
f 60/21/170 59/20/171 9/13/172 1/12/173
f 61/22/174 60/21/175 1/12/176 13/15/177
s 19
f 62/89/141 61/88/140 13/91/147 44/92/148
s 12
f 63/42/94 62/41/93 44/53/178 43/54/179
s 17
f 46/55/180 64/43/111 63/42/114 43/54/181
s 13
f 46/55/182 45/56/183 65/44/96 64/43/95
s 18
f 24/57/149 66/28/144 65/44/143 45/56/150
s 5
f 73/58/184 74/29/57 66/28/56 24/57/185
s 24
f 75/140/186 76/141/187 77/142/188 78/143/189
f 79/144/190 77/142/188 76/141/187 80/145/191
s 25
f 81/59/192 82/60/193 79/61/194 80/62/195
f 83/63/196 82/60/193 81/59/192 84/64/197
s 26
f 85/146/198 86/147/199 83/148/200 84/149/201
f 87/150/202 86/147/199 85/146/198 88/151/203
s 27
f 90/65/204 89/66/205 87/67/206 88/68/207
f 78/69/208 89/66/205 90/65/204 75/70/209
s 1
f 5/76/14 11/71/1 76/96/210 75/97/211
s 28
f 68/105/212 67/104/213 78/143/214 77/142/215
f 69/109/216 68/105/212 77/142/215 79/144/217
s 1
f 11/71/1 6/74/4 80/98/218 76/96/210
s 28
f 70/24/219 69/23/216 79/61/217 82/60/220
s 1
f 6/74/4 51/73/3 81/99/221 80/98/218
s 28
f 71/48/222 70/24/219 82/60/220 83/63/223
s 1
f 51/73/3 4/95/153 84/100/224 81/99/221
s 28
f 72/111/225 71/110/222 83/148/223 86/147/226
s 1
f 4/95/153 12/94/152 85/101/227 84/100/224
s 28
f 73/115/228 72/111/225 86/147/226 87/150/229
s 1
f 12/94/152 3/93/151 88/102/230 85/101/227
s 28
f 74/29/231 73/58/228 87/67/229 89/66/232
s 1
f 3/93/151 49/75/13 90/103/233 88/102/230
s 28
f 67/30/213 74/29/231 89/66/232 78/69/214
s 1
f 49/75/13 5/76/14 75/97/211 90/103/233
s off
f 108/152/234 109/153/235 100/154/236 99/155/237
f 109/153/238 110/156/239 101/157/240 100/154/241
f 110/156/242 111/158/243 102/159/244 101/157/245
f 111/158/246 112/160/247 103/161/248 102/159/249
f 112/160/250 113/162/251 104/163/252 103/161/253
f 113/162/254 114/164/255 105/165/256 104/163/257
f 114/164/258 115/166/259 106/167/260 105/165/261
f 115/166/262 108/152/263 99/155/264 106/167/265
f 99/155/266 100/154/267 107/168/268
f 100/154/269 101/157/270 107/168/271
f 101/157/272 102/159/273 107/168/274
f 102/159/275 103/161/276 107/168/277
f 103/161/278 104/163/279 107/168/280
f 104/163/281 105/165/282 107/168/283
f 105/165/284 106/167/285 107/168/286
f 106/167/287 99/155/288 107/168/289
f 91/169/290 92/170/291 109/171/292 108/172/293
f 92/170/294 93/173/295 110/174/296 109/171/297
f 93/175/298 94/176/299 111/177/300 110/178/301
f 94/176/302 95/179/303 112/180/304 111/177/305
f 95/179/306 96/181/307 113/182/308 112/180/309
f 96/181/310 97/183/311 114/184/312 113/182/313
f 97/183/314 98/185/315 115/186/316 114/184/317
f 98/185/318 91/169/319 108/172/320 115/186/321
